<svg xmlns="http://www.w3.org/2000/svg" viewBox="0 0 576 512"><!--!Font Awesome Pro 6.7.2 by @fontawesome - https://fontawesome.com License - https://fontawesome.com/license (Commercial License) Copyright 2025 Fonticons, Inc.--><path fill="#616e7c" d="M544 224h32V112c0-26.5-21.5-48-48-48H48C21.5 64 0 85.5 0 112v112h32c17.7 0 32 14.3 32 32s-14.3 32-32 32H0v112c0 26.5 21.5 48 48 48h480c26.5 0 48-21.5 48-48V288h-32c-17.7 0-32-14.3-32-32s14.3-32 32-32zm0 96v80c0 8.8-7.2 16-16 16H48c-8.8 0-16-7.2-16-16v-80c35.3 0 64-28.7 64-64s-28.7-64-64-64v-80c0-8.8 7.2-16 16-16h480c8.8 0 16 7.2 16 16v80c-35.3 0-64 28.7-64 64s28.7 64 64 64z"/></svg>